<?xml version="1.0" encoding="utf-8"?>
<!-- Generator: Adobe Illustrator 24.3.0, SVG Export Plug-In . SVG Version: 6.00 Build 0)  -->
<svg version="1.1" id="Layer_1" xmlns="http://www.w3.org/2000/svg" xmlns:xlink="http://www.w3.org/1999/xlink" x="0px" y="0px"
	 viewBox="0 0 64 64" enable-background="new 0 0 64 64" xml:space="preserve">
<rect x="48" y="8" fill="#F05974" width="6" height="19"/>
<path fill="#F05974" d="M44,27V4c0-0.6-0.4-1-1-1H27c-0.6,0-1,0.4-1,1v23H44z"/>
<rect x="14" y="18" fill="#495052" width="8" height="9"/>
<polygon fill="#495052" points="51,3 48,8 54,8 "/>
<polygon fill="#F05974" points="21,10 15,14 15,18 21,18 "/>
<path fill="#495052" d="M12.5,58.7C12.8,60,14,61,15.4,61h35.2c1.4,0,2.6-1,2.9-2.3l1.3-5.7H11.1L12.5,58.7z"/>
<path fill="#FAEBEB" d="M5,27l6.1,26h43.8L61,27H5z"/>
<path fill="#F05974" d="M32,40l-2.6-0.9c-0.3-0.1-0.6-0.1-0.8,0.1L24,42l4,2c2.5,1.3,5.5,1.3,8,0l4-2l-4.6-2.8
	c-0.3-0.2-0.6-0.2-0.8-0.1L32,40z"/>
<rect x="45" y="33" fill="#F05974" width="2" height="2"/>
<rect x="43" y="35" fill="#F05974" width="2" height="2"/>
<rect x="47" y="35" fill="#F05974" width="2" height="2"/>
<rect x="45" y="37" fill="#F05974" width="2" height="2"/>
<rect x="17" y="44" fill="#F05974" width="2" height="2"/>
<rect x="15" y="46" fill="#F05974" width="2" height="2"/>
<rect x="19" y="46" fill="#F05974" width="2" height="2"/>
<rect x="17" y="48" fill="#F05974" width="2" height="2"/>
<rect x="52" y="39" fill="#F05974" width="2" height="2"/>
<rect x="13" y="38" fill="#F05974" width="2" height="2"/>
<polygon fill="#495052" points="41,13 41,11 38,11 38,10 40,10 40,8 38,8 38,7 36,7 36,8 34,8 34,10 36,10 36,11 33,11 33,13 36,13 
	36,14 33,14 33,16 36,16 36,17 35,17 35,19 36,19 36,27 38,27 38,19 39,19 39,17 38,17 38,16 41,16 41,14 38,14 38,13 "/>
<rect x="29" y="6" fill="#495052" width="2" height="2"/>
<rect x="29" y="10" fill="#495052" width="2" height="17"/>
</svg>
